<svg xmlns="http://www.w3.org/2000/svg" version="1.1" xmlns:xlink="http://www.w3.org/1999/xlink" xmlns:svgjs="http://svgjs.dev/svgjs" width="1440" height="560" preserveAspectRatio="none" viewBox="0 0 1440 560"><g mask="url(&quot;#SvgjsMask1008&quot;)" fill="none"><rect width="1440" height="560" x="0" y="0" fill="#0e2a47"></rect><path d="M-100.41 401.88L-100.41 401.88" stroke="#132e65" stroke-width="1.5"></path><path d="M-100.41 401.88L52.43 528.15" stroke="#132e65" stroke-width="1.5"></path><path d="M-51.83 684.46L-51.83 684.46" stroke="#132e65" stroke-width="1.5"></path><path d="M-51.83 684.46L57.8 674.79" stroke="#132e65" stroke-width="1.5"></path><path d="M-51.83 684.46L52.43 528.15" stroke="#132e65" stroke-width="1.5"></path><path d="M-51.83 684.46L197.69 710.94" stroke="#132e65" stroke-width="1.5"></path><path d="M104.48 368.78L104.48 368.78" stroke="#132e65" stroke-width="1.5"></path><path d="M104.48 368.78L222.28 406.81" stroke="#132e65" stroke-width="1.5"></path><path d="M104.48 368.78L52.43 528.15" stroke="#132e65" stroke-width="1.5"></path><path d="M52.43 528.15L52.43 528.15" stroke="#132e65" stroke-width="1.5"></path><path d="M52.43 528.15L57.8 674.79" stroke="#132e65" stroke-width="1.5"></path><path d="M52.43 528.15L206.11 556.48" stroke="#132e65" stroke-width="1.5"></path><path d="M57.8 674.79L57.8 674.79" stroke="#132e65" stroke-width="1.5"></path><path d="M57.8 674.79L197.69 710.94" stroke="#132e65" stroke-width="1.5"></path><path d="M222.28 406.81L222.28 406.81" stroke="#132e65" stroke-width="1.5"></path><path d="M222.28 406.81L206.11 556.48" stroke="#132e65" stroke-width="1.5"></path><path d="M206.11 556.48L206.11 556.48" stroke="#132e65" stroke-width="1.5"></path><path d="M206.11 556.48L348.27 555.86" stroke="#132e65" stroke-width="1.5"></path><path d="M197.69 710.94L197.69 710.94" stroke="#132e65" stroke-width="1.5"></path><path d="M197.69 710.94L206.11 556.48" stroke="#132e65" stroke-width="1.5"></path><path d="M197.69 710.94L348.27 555.86" stroke="#132e65" stroke-width="1.5"></path><path d="M398.27 392.93L398.27 392.93" stroke="#132e65" stroke-width="1.5"></path><path d="M398.27 392.93L496.46 395.57" stroke="#132e65" stroke-width="1.5"></path><path d="M398.27 392.93L496.49 495.56" stroke="#132e65" stroke-width="1.5"></path><path d="M398.27 392.93L348.27 555.86" stroke="#132e65" stroke-width="1.5"></path><path d="M398.27 392.93L222.28 406.81" stroke="#132e65" stroke-width="1.5"></path><path d="M398.27 392.93L638.86 350.77" stroke="#132e65" stroke-width="1.5"></path><path d="M348.27 555.86L348.27 555.86" stroke="#132e65" stroke-width="1.5"></path><path d="M348.27 555.86L406.91 638.12" stroke="#132e65" stroke-width="1.5"></path><path d="M348.27 555.86L496.49 495.56" stroke="#132e65" stroke-width="1.5"></path><path d="M406.91 638.12L406.91 638.12" stroke="#132e65" stroke-width="1.5"></path><path d="M406.91 638.12L492.57 673.31" stroke="#132e65" stroke-width="1.5"></path><path d="M406.91 638.12L496.49 495.56" stroke="#132e65" stroke-width="1.5"></path><path d="M406.91 638.12L206.11 556.48" stroke="#132e65" stroke-width="1.5"></path><path d="M406.91 638.12L197.69 710.94" stroke="#132e65" stroke-width="1.5"></path><path d="M406.91 638.12L398.27 392.93" stroke="#132e65" stroke-width="1.5"></path><path d="M496.46 395.57L496.46 395.57" stroke="#132e65" stroke-width="1.5"></path><path d="M496.46 395.57L496.49 495.56" stroke="#132e65" stroke-width="1.5"></path><path d="M496.46 395.57L638.86 350.77" stroke="#132e65" stroke-width="1.5"></path><path d="M496.49 495.56L496.49 495.56" stroke="#132e65" stroke-width="1.5"></path><path d="M496.49 495.56L492.57 673.31" stroke="#132e65" stroke-width="1.5"></path><path d="M492.57 673.31L492.57 673.31" stroke="#132e65" stroke-width="1.5"></path><path d="M492.57 673.31L655.9 708.39" stroke="#132e65" stroke-width="1.5"></path><path d="M638.86 350.77L638.86 350.77" stroke="#132e65" stroke-width="1.5"></path><path d="M673.93 549.27L673.93 549.27" stroke="#132e65" stroke-width="1.5"></path><path d="M673.93 549.27L808.07 526.56" stroke="#132e65" stroke-width="1.5"></path><path d="M673.93 549.27L655.9 708.39" stroke="#132e65" stroke-width="1.5"></path><path d="M673.93 549.27L496.49 495.56" stroke="#132e65" stroke-width="1.5"></path><path d="M673.93 549.27L638.86 350.77" stroke="#132e65" stroke-width="1.5"></path><path d="M673.93 549.27L811.8 389.28" stroke="#132e65" stroke-width="1.5"></path><path d="M673.93 549.27L856.49 670.88" stroke="#132e65" stroke-width="1.5"></path><path d="M655.9 708.39L655.9 708.39" stroke="#132e65" stroke-width="1.5"></path><path d="M655.9 708.39L856.49 670.88" stroke="#132e65" stroke-width="1.5"></path><path d="M655.9 708.39L808.07 526.56" stroke="#132e65" stroke-width="1.5"></path><path d="M814.7 255.21L814.7 255.21" stroke="#132e65" stroke-width="1.5"></path><path d="M814.7 255.21L811.8 389.28" stroke="#132e65" stroke-width="1.5"></path><path d="M814.7 255.21L946 357.67" stroke="#132e65" stroke-width="1.5"></path><path d="M814.7 255.21L987.88 249.48" stroke="#132e65" stroke-width="1.5"></path><path d="M814.7 255.21L638.86 350.77" stroke="#132e65" stroke-width="1.5"></path><path d="M814.7 255.21L988.86 86.54" stroke="#132e65" stroke-width="1.5"></path><path d="M814.7 255.21L808.07 526.56" stroke="#132e65" stroke-width="1.5"></path><path d="M811.8 389.28L811.8 389.28" stroke="#132e65" stroke-width="1.5"></path><path d="M811.8 389.28L808.07 526.56" stroke="#132e65" stroke-width="1.5"></path><path d="M811.8 389.28L946 357.67" stroke="#132e65" stroke-width="1.5"></path><path d="M808.07 526.56L808.07 526.56" stroke="#132e65" stroke-width="1.5"></path><path d="M808.07 526.56L943.03 533.27" stroke="#132e65" stroke-width="1.5"></path><path d="M856.49 670.88L856.49 670.88" stroke="#132e65" stroke-width="1.5"></path><path d="M856.49 670.88L961.83 650.88" stroke="#132e65" stroke-width="1.5"></path><path d="M856.49 670.88L808.07 526.56" stroke="#132e65" stroke-width="1.5"></path><path d="M856.49 670.88L943.03 533.27" stroke="#132e65" stroke-width="1.5"></path><path d="M957.91 -40.63L957.91 -40.63" stroke="#132e65" stroke-width="1.5"></path><path d="M957.91 -40.63L988.86 86.54" stroke="#132e65" stroke-width="1.5"></path><path d="M957.91 -40.63L1147.89 -42.67" stroke="#132e65" stroke-width="1.5"></path><path d="M957.91 -40.63L987.88 249.48" stroke="#132e65" stroke-width="1.5"></path><path d="M957.91 -40.63L1246.67 -93.32" stroke="#132e65" stroke-width="1.5"></path><path d="M988.86 86.54L988.86 86.54" stroke="#132e65" stroke-width="1.5"></path><path d="M988.86 86.54L987.88 249.48" stroke="#132e65" stroke-width="1.5"></path><path d="M987.88 249.48L987.88 249.48" stroke="#132e65" stroke-width="1.5"></path><path d="M987.88 249.48L946 357.67" stroke="#132e65" stroke-width="1.5"></path><path d="M987.88 249.48L1134.92 255.1" stroke="#132e65" stroke-width="1.5"></path><path d="M946 357.67L946 357.67" stroke="#132e65" stroke-width="1.5"></path><path d="M946 357.67L1092.91 361.07" stroke="#132e65" stroke-width="1.5"></path><path d="M946 357.67L943.03 533.27" stroke="#132e65" stroke-width="1.5"></path><path d="M946 357.67L1134.92 255.1" stroke="#132e65" stroke-width="1.5"></path><path d="M943.03 533.27L943.03 533.27" stroke="#132e65" stroke-width="1.5"></path><path d="M943.03 533.27L961.83 650.88" stroke="#132e65" stroke-width="1.5"></path><path d="M961.83 650.88L961.83 650.88" stroke="#132e65" stroke-width="1.5"></path><path d="M961.83 650.88L1102.58 693.45" stroke="#132e65" stroke-width="1.5"></path><path d="M961.83 650.88L808.07 526.56" stroke="#132e65" stroke-width="1.5"></path><path d="M961.83 650.88L1156.92 540.59" stroke="#132e65" stroke-width="1.5"></path><path d="M961.83 650.88L946 357.67" stroke="#132e65" stroke-width="1.5"></path><path d="M1147.89 -42.67L1147.89 -42.67" stroke="#132e65" stroke-width="1.5"></path><path d="M1147.89 -42.67L1246.67 -93.32" stroke="#132e65" stroke-width="1.5"></path><path d="M1147.89 -42.67L1279.76 57.47" stroke="#132e65" stroke-width="1.5"></path><path d="M1147.89 -42.67L988.86 86.54" stroke="#132e65" stroke-width="1.5"></path><path d="M1147.89 -42.67L1406.89 -46.59" stroke="#132e65" stroke-width="1.5"></path><path d="M1134.92 255.1L1134.92 255.1" stroke="#132e65" stroke-width="1.5"></path><path d="M1134.92 255.1L1092.91 361.07" stroke="#132e65" stroke-width="1.5"></path><path d="M1134.92 255.1L1296.38 381.19" stroke="#132e65" stroke-width="1.5"></path><path d="M1092.91 361.07L1092.91 361.07" stroke="#132e65" stroke-width="1.5"></path><path d="M1092.91 361.07L987.88 249.48" stroke="#132e65" stroke-width="1.5"></path><path d="M1156.92 540.59L1156.92 540.59" stroke="#132e65" stroke-width="1.5"></path><path d="M1156.92 540.59L1270.26 557.31" stroke="#132e65" stroke-width="1.5"></path><path d="M1156.92 540.59L1102.58 693.45" stroke="#132e65" stroke-width="1.5"></path><path d="M1156.92 540.59L1262.15 696" stroke="#132e65" stroke-width="1.5"></path><path d="M1102.58 693.45L1102.58 693.45" stroke="#132e65" stroke-width="1.5"></path><path d="M1102.58 693.45L1262.15 696" stroke="#132e65" stroke-width="1.5"></path><path d="M1102.58 693.45L1270.26 557.31" stroke="#132e65" stroke-width="1.5"></path><path d="M1102.58 693.45L943.03 533.27" stroke="#132e65" stroke-width="1.5"></path><path d="M1102.58 693.45L856.49 670.88" stroke="#132e65" stroke-width="1.5"></path><path d="M1246.67 -93.32L1246.67 -93.32" stroke="#132e65" stroke-width="1.5"></path><path d="M1246.67 -93.32L1279.76 57.47" stroke="#132e65" stroke-width="1.5"></path><path d="M1279.76 57.47L1279.76 57.47" stroke="#132e65" stroke-width="1.5"></path><path d="M1279.76 57.47L1431.41 52.28" stroke="#132e65" stroke-width="1.5"></path><path d="M1279.76 57.47L1406.89 -46.59" stroke="#132e65" stroke-width="1.5"></path><path d="M1279.76 57.47L1438.84 198.93" stroke="#132e65" stroke-width="1.5"></path><path d="M1279.76 57.47L1134.92 255.1" stroke="#132e65" stroke-width="1.5"></path><path d="M1296.38 381.19L1296.38 381.19" stroke="#132e65" stroke-width="1.5"></path><path d="M1296.38 381.19L1270.26 557.31" stroke="#132e65" stroke-width="1.5"></path><path d="M1296.38 381.19L1459.35 493.21" stroke="#132e65" stroke-width="1.5"></path><path d="M1270.26 557.31L1270.26 557.31" stroke="#132e65" stroke-width="1.5"></path><path d="M1270.26 557.31L1262.15 696" stroke="#132e65" stroke-width="1.5"></path><path d="M1262.15 696L1262.15 696" stroke="#132e65" stroke-width="1.5"></path><path d="M1262.15 696L1461.58 655.05" stroke="#132e65" stroke-width="1.5"></path><path d="M1406.89 -46.59L1406.89 -46.59" stroke="#132e65" stroke-width="1.5"></path><path d="M1406.89 -46.59L1431.41 52.28" stroke="#132e65" stroke-width="1.5"></path><path d="M1406.89 -46.59L1549.07 -98.63" stroke="#132e65" stroke-width="1.5"></path><path d="M1406.89 -46.59L1246.67 -93.32" stroke="#132e65" stroke-width="1.5"></path><path d="M1406.89 -46.59L1545.47 46.97" stroke="#132e65" stroke-width="1.5"></path><path d="M1431.41 52.28L1431.41 52.28" stroke="#132e65" stroke-width="1.5"></path><path d="M1431.41 52.28L1545.47 46.97" stroke="#132e65" stroke-width="1.5"></path><path d="M1438.84 198.93L1438.84 198.93" stroke="#132e65" stroke-width="1.5"></path><path d="M1438.84 198.93L1431.41 52.28" stroke="#132e65" stroke-width="1.5"></path><path d="M1438.84 198.93L1587.05 218.57" stroke="#132e65" stroke-width="1.5"></path><path d="M1438.84 198.93L1545.47 46.97" stroke="#132e65" stroke-width="1.5"></path><path d="M1459.35 493.21L1459.35 493.21" stroke="#132e65" stroke-width="1.5"></path><path d="M1459.35 493.21L1461.58 655.05" stroke="#132e65" stroke-width="1.5"></path><path d="M1459.35 493.21L1270.26 557.31" stroke="#132e65" stroke-width="1.5"></path><path d="M1459.35 493.21L1262.15 696" stroke="#132e65" stroke-width="1.5"></path><path d="M1461.58 655.05L1461.58 655.05" stroke="#132e65" stroke-width="1.5"></path><path d="M1461.58 655.05L1270.26 557.31" stroke="#132e65" stroke-width="1.5"></path><path d="M1461.58 655.05L1296.38 381.19" stroke="#132e65" stroke-width="1.5"></path><path d="M1461.58 655.05L1156.92 540.59" stroke="#132e65" stroke-width="1.5"></path><path d="M1549.07 -98.63L1549.07 -98.63" stroke="#132e65" stroke-width="1.5"></path><path d="M1549.07 -98.63L1545.47 46.97" stroke="#132e65" stroke-width="1.5"></path><path d="M1549.07 -98.63L1431.41 52.28" stroke="#132e65" stroke-width="1.5"></path><path d="M1545.47 46.97L1545.47 46.97" stroke="#132e65" stroke-width="1.5"></path><path d="M1545.47 46.97L1587.05 218.57" stroke="#132e65" stroke-width="1.5"></path><path d="M1587.05 218.57L1587.05 218.57" stroke="#132e65" stroke-width="1.5"></path><path d="M1587.05 218.57L1431.41 52.28" stroke="#132e65" stroke-width="1.5"></path><path d="M1587.05 218.57L1459.35 493.21" stroke="#132e65" stroke-width="1.5"></path><path d="M1587.05 218.57L1549.07 -98.63" stroke="#132e65" stroke-width="1.5"></path><path d="M1587.05 218.57L1406.89 -46.59" stroke="#132e65" stroke-width="1.5"></path><circle r="5" cx="-100.41" cy="401.88" fill="#132e65"></circle><circle r="5" cx="-51.83" cy="684.46" fill="#132e65"></circle><circle r="5" cx="104.48" cy="368.78" fill="#132e65"></circle><circle r="5" cx="52.43" cy="528.15" fill="#132e65"></circle><circle r="5" cx="57.8" cy="674.79" fill="#132e65"></circle><circle r="5" cx="222.28" cy="406.81" fill="#132e65"></circle><circle r="5" cx="206.11" cy="556.48" fill="#132e65"></circle><circle r="5" cx="197.69" cy="710.94" fill="#132e65"></circle><circle r="5" cx="398.27" cy="392.93" fill="#132e65"></circle><circle r="5" cx="348.27" cy="555.86" fill="#132e65"></circle><circle r="5" cx="406.91" cy="638.12" fill="#132e65"></circle><circle r="5" cx="496.46" cy="395.57" fill="#132e65"></circle><circle r="5" cx="496.49" cy="495.56" fill="#132e65"></circle><circle r="5" cx="492.57" cy="673.31" fill="#132e65"></circle><circle r="5" cx="638.86" cy="350.77" fill="#132e65"></circle><circle r="5" cx="673.93" cy="549.27" fill="#132e65"></circle><circle r="5" cx="655.9" cy="708.39" fill="#132e65"></circle><circle r="5" cx="814.7" cy="255.21" fill="#132e65"></circle><circle r="5" cx="811.8" cy="389.28" fill="#132e65"></circle><circle r="5" cx="808.07" cy="526.56" fill="#132e65"></circle><circle r="5" cx="856.49" cy="670.88" fill="#132e65"></circle><circle r="5" cx="957.91" cy="-40.63" fill="#132e65"></circle><circle r="5" cx="988.86" cy="86.54" fill="#132e65"></circle><circle r="5" cx="987.88" cy="249.48" fill="#132e65"></circle><circle r="5" cx="946" cy="357.67" fill="#132e65"></circle><circle r="5" cx="943.03" cy="533.27" fill="#132e65"></circle><circle r="5" cx="961.83" cy="650.88" fill="#132e65"></circle><circle r="5" cx="1147.89" cy="-42.67" fill="#132e65"></circle><circle r="5" cx="1134.92" cy="255.1" fill="#132e65"></circle><circle r="5" cx="1092.91" cy="361.07" fill="#132e65"></circle><circle r="5" cx="1156.92" cy="540.59" fill="#132e65"></circle><circle r="5" cx="1102.58" cy="693.45" fill="#132e65"></circle><circle r="5" cx="1246.67" cy="-93.32" fill="#132e65"></circle><circle r="5" cx="1279.76" cy="57.47" fill="#132e65"></circle><circle r="5" cx="1296.38" cy="381.19" fill="#132e65"></circle><circle r="5" cx="1270.26" cy="557.31" fill="#132e65"></circle><circle r="5" cx="1262.15" cy="696" fill="#132e65"></circle><circle r="5" cx="1406.89" cy="-46.59" fill="#132e65"></circle><circle r="5" cx="1431.41" cy="52.28" fill="#132e65"></circle><circle r="5" cx="1438.84" cy="198.93" fill="#132e65"></circle><circle r="5" cx="1459.35" cy="493.21" fill="#132e65"></circle><circle r="5" cx="1461.58" cy="655.05" fill="#132e65"></circle><circle r="5" cx="1549.07" cy="-98.63" fill="#132e65"></circle><circle r="5" cx="1545.47" cy="46.97" fill="#132e65"></circle><circle r="5" cx="1587.05" cy="218.57" fill="#132e65"></circle><path d="M-82.21 702.7L-82.21 702.7" stroke="hsl(228.5, 77.2%, 51.5%)" stroke-width="1.5"></path><path d="M-82.21 702.7L58.42 689.51" stroke="hsl(228.5, 77.2%, 51.5%)" stroke-width="1.5"></path><path d="M-82.21 702.7L-75.27 561.23" stroke="hsl(228.5, 77.2%, 51.5%)" stroke-width="1.5"></path><path d="M-82.21 702.7L86.05 558.32" stroke="hsl(228.5, 77.2%, 51.5%)" stroke-width="1.5"></path><path d="M196.33 532.1L196.33 532.1" stroke="hsl(228.5, 77.2%, 51.5%)" stroke-width="1.5"></path><path d="M196.33 532.1L86.05 558.32" stroke="hsl(228.5, 77.2%, 51.5%)" stroke-width="1.5"></path><path d="M196.33 532.1L208.76 697.96" stroke="hsl(228.5, 77.2%, 51.5%)" stroke-width="1.5"></path><path d="M196.33 532.1L360.96 492.99" stroke="hsl(228.5, 77.2%, 51.5%)" stroke-width="1.5"></path><path d="M196.33 532.1L343.16 655.5" stroke="hsl(228.5, 77.2%, 51.5%)" stroke-width="1.5"></path><path d="M196.33 532.1L58.42 689.51" stroke="hsl(228.5, 77.2%, 51.5%)" stroke-width="1.5"></path><path d="M196.33 532.1L-75.27 561.23" stroke="hsl(228.5, 77.2%, 51.5%)" stroke-width="1.5"></path><path d="M511.8 561.67L511.8 561.67" stroke="hsl(228.5, 77.2%, 51.5%)" stroke-width="1.5"></path><path d="M511.8 561.67L523.86 703.41" stroke="hsl(228.5, 77.2%, 51.5%)" stroke-width="1.5"></path><path d="M511.8 561.67L643.06 503.31" stroke="hsl(228.5, 77.2%, 51.5%)" stroke-width="1.5"></path><path d="M511.8 561.67L360.96 492.99" stroke="hsl(228.5, 77.2%, 51.5%)" stroke-width="1.5"></path><path d="M511.8 561.67L675.44 639.96" stroke="hsl(228.5, 77.2%, 51.5%)" stroke-width="1.5"></path><path d="M845.87 373.74L845.87 373.74" stroke="hsl(228.5, 77.2%, 51.5%)" stroke-width="1.5"></path><path d="M845.87 373.74L947.69 381.73" stroke="hsl(228.5, 77.2%, 51.5%)" stroke-width="1.5"></path><path d="M845.87 373.74L684.43 366.38" stroke="hsl(228.5, 77.2%, 51.5%)" stroke-width="1.5"></path><path d="M808.09 657.18L808.09 657.18" stroke="hsl(228.5, 77.2%, 51.5%)" stroke-width="1.5"></path><path d="M808.09 657.18L853.04 544.86" stroke="hsl(228.5, 77.2%, 51.5%)" stroke-width="1.5"></path><path d="M808.09 657.18L675.44 639.96" stroke="hsl(228.5, 77.2%, 51.5%)" stroke-width="1.5"></path><path d="M808.09 657.18L965.2 651.75" stroke="hsl(228.5, 77.2%, 51.5%)" stroke-width="1.5"></path><path d="M808.09 657.18L643.06 503.31" stroke="hsl(228.5, 77.2%, 51.5%)" stroke-width="1.5"></path><path d="M1155.14 534.1L1155.14 534.1" stroke="hsl(228.5, 77.2%, 51.5%)" stroke-width="1.5"></path><path d="M1155.14 534.1L1130.15 672.04" stroke="hsl(228.5, 77.2%, 51.5%)" stroke-width="1.5"></path><path d="M1155.14 534.1L1297.46 508.51" stroke="hsl(228.5, 77.2%, 51.5%)" stroke-width="1.5"></path><path d="M1155.14 534.1L1254.6 693.85" stroke="hsl(228.5, 77.2%, 51.5%)" stroke-width="1.5"></path><path d="M1155.14 534.1L965.76 492.74" stroke="hsl(228.5, 77.2%, 51.5%)" stroke-width="1.5"></path><path d="M1155.14 534.1L1270.82 377.69" stroke="hsl(228.5, 77.2%, 51.5%)" stroke-width="1.5"></path><path d="M1155.14 534.1L1102.05 339.98" stroke="hsl(228.5, 77.2%, 51.5%)" stroke-width="1.5"></path><path d="M1393.55 557.46L1393.55 557.46" stroke="hsl(228.5, 77.2%, 51.5%)" stroke-width="1.5"></path><path d="M1393.55 557.46L1297.46 508.51" stroke="hsl(228.5, 77.2%, 51.5%)" stroke-width="1.5"></path><path d="M1393.55 557.46L1411.95 703.3" stroke="hsl(228.5, 77.2%, 51.5%)" stroke-width="1.5"></path><path d="M1393.55 557.46L1395.99 404.94" stroke="hsl(228.5, 77.2%, 51.5%)" stroke-width="1.5"></path><path d="M1393.55 557.46L1563.81 512.26" stroke="hsl(228.5, 77.2%, 51.5%)" stroke-width="1.5"></path><path d="M1393.55 557.46L1254.6 693.85" stroke="hsl(228.5, 77.2%, 51.5%)" stroke-width="1.5"></path><path d="M1542.74 51.43L1542.74 51.43" stroke="hsl(228.5, 77.2%, 51.5%)" stroke-width="1.5"></path><path d="M1542.74 51.43L1449.95 53.64" stroke="hsl(228.5, 77.2%, 51.5%)" stroke-width="1.5"></path><path d="M1542.74 51.43L1610.4 -51.32" stroke="hsl(228.5, 77.2%, 51.5%)" stroke-width="1.5"></path><path d="M1542.74 51.43L1562.01 208.12" stroke="hsl(228.5, 77.2%, 51.5%)" stroke-width="1.5"></path><path d="M1566.26 384.31L1566.26 384.31" stroke="hsl(228.5, 77.2%, 51.5%)" stroke-width="1.5"></path><path d="M1566.26 384.31L1563.81 512.26" stroke="hsl(228.5, 77.2%, 51.5%)" stroke-width="1.5"></path><path d="M1566.26 384.31L1395.99 404.94" stroke="hsl(228.5, 77.2%, 51.5%)" stroke-width="1.5"></path><path d="M1566.26 384.31L1562.01 208.12" stroke="hsl(228.5, 77.2%, 51.5%)" stroke-width="1.5"></path><path d="M1566.26 384.31L1439.8 222.84" stroke="hsl(228.5, 77.2%, 51.5%)" stroke-width="1.5"></path><path d="M-75.27 561.23L-75.27 561.23" stroke="hsl(228.5, 77.2%, 51.5%)" stroke-width="1.5"></path><path d="M-75.27 561.23L86.05 558.32" stroke="hsl(228.5, 77.2%, 51.5%)" stroke-width="1.5"></path><path d="M-75.27 561.23L58.42 689.51" stroke="hsl(228.5, 77.2%, 51.5%)" stroke-width="1.5"></path><path d="M-75.27 561.23L208.76 697.96" stroke="hsl(228.5, 77.2%, 51.5%)" stroke-width="1.5"></path><path d="M-75.27 561.23L343.16 655.5" stroke="hsl(228.5, 77.2%, 51.5%)" stroke-width="1.5"></path><path d="M86.05 558.32L86.05 558.32" stroke="hsl(228.5, 77.2%, 51.5%)" stroke-width="1.5"></path><path d="M86.05 558.32L58.42 689.51" stroke="hsl(228.5, 77.2%, 51.5%)" stroke-width="1.5"></path><path d="M86.05 558.32L208.76 697.96" stroke="hsl(228.5, 77.2%, 51.5%)" stroke-width="1.5"></path><path d="M58.42 689.51L58.42 689.51" stroke="hsl(228.5, 77.2%, 51.5%)" stroke-width="1.5"></path><path d="M208.76 697.96L208.76 697.96" stroke="hsl(228.5, 77.2%, 51.5%)" stroke-width="1.5"></path><path d="M208.76 697.96L343.16 655.5" stroke="hsl(228.5, 77.2%, 51.5%)" stroke-width="1.5"></path><path d="M208.76 697.96L58.42 689.51" stroke="hsl(228.5, 77.2%, 51.5%)" stroke-width="1.5"></path><path d="M208.76 697.96L360.96 492.99" stroke="hsl(228.5, 77.2%, 51.5%)" stroke-width="1.5"></path><path d="M360.96 492.99L360.96 492.99" stroke="hsl(228.5, 77.2%, 51.5%)" stroke-width="1.5"></path><path d="M360.96 492.99L343.16 655.5" stroke="hsl(228.5, 77.2%, 51.5%)" stroke-width="1.5"></path><path d="M343.16 655.5L343.16 655.5" stroke="hsl(228.5, 77.2%, 51.5%)" stroke-width="1.5"></path><path d="M343.16 655.5L523.86 703.41" stroke="hsl(228.5, 77.2%, 51.5%)" stroke-width="1.5"></path><path d="M343.16 655.5L511.8 561.67" stroke="hsl(228.5, 77.2%, 51.5%)" stroke-width="1.5"></path><path d="M523.86 703.41L523.86 703.41" stroke="hsl(228.5, 77.2%, 51.5%)" stroke-width="1.5"></path><path d="M523.86 703.41L675.44 639.96" stroke="hsl(228.5, 77.2%, 51.5%)" stroke-width="1.5"></path><path d="M523.86 703.41L643.06 503.31" stroke="hsl(228.5, 77.2%, 51.5%)" stroke-width="1.5"></path><path d="M523.86 703.41L360.96 492.99" stroke="hsl(228.5, 77.2%, 51.5%)" stroke-width="1.5"></path><path d="M523.86 703.41L808.09 657.18" stroke="hsl(228.5, 77.2%, 51.5%)" stroke-width="1.5"></path><path d="M684.43 366.38L684.43 366.38" stroke="hsl(228.5, 77.2%, 51.5%)" stroke-width="1.5"></path><path d="M684.43 366.38L643.06 503.31" stroke="hsl(228.5, 77.2%, 51.5%)" stroke-width="1.5"></path><path d="M684.43 366.38L853.04 544.86" stroke="hsl(228.5, 77.2%, 51.5%)" stroke-width="1.5"></path><path d="M684.43 366.38L511.8 561.67" stroke="hsl(228.5, 77.2%, 51.5%)" stroke-width="1.5"></path><path d="M684.43 366.38L947.69 381.73" stroke="hsl(228.5, 77.2%, 51.5%)" stroke-width="1.5"></path><path d="M643.06 503.31L643.06 503.31" stroke="hsl(228.5, 77.2%, 51.5%)" stroke-width="1.5"></path><path d="M643.06 503.31L675.44 639.96" stroke="hsl(228.5, 77.2%, 51.5%)" stroke-width="1.5"></path><path d="M675.44 639.96L675.44 639.96" stroke="hsl(228.5, 77.2%, 51.5%)" stroke-width="1.5"></path><path d="M853.04 544.86L853.04 544.86" stroke="hsl(228.5, 77.2%, 51.5%)" stroke-width="1.5"></path><path d="M853.04 544.86L965.76 492.74" stroke="hsl(228.5, 77.2%, 51.5%)" stroke-width="1.5"></path><path d="M853.04 544.86L965.2 651.75" stroke="hsl(228.5, 77.2%, 51.5%)" stroke-width="1.5"></path><path d="M853.04 544.86L845.87 373.74" stroke="hsl(228.5, 77.2%, 51.5%)" stroke-width="1.5"></path><path d="M947.69 381.73L947.69 381.73" stroke="hsl(228.5, 77.2%, 51.5%)" stroke-width="1.5"></path><path d="M947.69 381.73L965.76 492.74" stroke="hsl(228.5, 77.2%, 51.5%)" stroke-width="1.5"></path><path d="M947.69 381.73L1102.05 339.98" stroke="hsl(228.5, 77.2%, 51.5%)" stroke-width="1.5"></path><path d="M947.69 381.73L853.04 544.86" stroke="hsl(228.5, 77.2%, 51.5%)" stroke-width="1.5"></path><path d="M947.69 381.73L1141.07 248.13" stroke="hsl(228.5, 77.2%, 51.5%)" stroke-width="1.5"></path><path d="M965.76 492.74L965.76 492.74" stroke="hsl(228.5, 77.2%, 51.5%)" stroke-width="1.5"></path><path d="M965.2 651.75L965.2 651.75" stroke="hsl(228.5, 77.2%, 51.5%)" stroke-width="1.5"></path><path d="M965.2 651.75L965.76 492.74" stroke="hsl(228.5, 77.2%, 51.5%)" stroke-width="1.5"></path><path d="M965.2 651.75L1130.15 672.04" stroke="hsl(228.5, 77.2%, 51.5%)" stroke-width="1.5"></path><path d="M965.2 651.75L1155.14 534.1" stroke="hsl(228.5, 77.2%, 51.5%)" stroke-width="1.5"></path><path d="M965.2 651.75L947.69 381.73" stroke="hsl(228.5, 77.2%, 51.5%)" stroke-width="1.5"></path><path d="M1141.07 248.13L1141.07 248.13" stroke="hsl(228.5, 77.2%, 51.5%)" stroke-width="1.5"></path><path d="M1141.07 248.13L1102.05 339.98" stroke="hsl(228.5, 77.2%, 51.5%)" stroke-width="1.5"></path><path d="M1141.07 248.13L1266.26 234.7" stroke="hsl(228.5, 77.2%, 51.5%)" stroke-width="1.5"></path><path d="M1141.07 248.13L1270.82 377.69" stroke="hsl(228.5, 77.2%, 51.5%)" stroke-width="1.5"></path><path d="M1141.07 248.13L1155.14 534.1" stroke="hsl(228.5, 77.2%, 51.5%)" stroke-width="1.5"></path><path d="M1141.07 248.13L1395.99 404.94" stroke="hsl(228.5, 77.2%, 51.5%)" stroke-width="1.5"></path><path d="M1102.05 339.98L1102.05 339.98" stroke="hsl(228.5, 77.2%, 51.5%)" stroke-width="1.5"></path><path d="M1102.05 339.98L1270.82 377.69" stroke="hsl(228.5, 77.2%, 51.5%)" stroke-width="1.5"></path><path d="M1130.15 672.04L1130.15 672.04" stroke="hsl(228.5, 77.2%, 51.5%)" stroke-width="1.5"></path><path d="M1130.15 672.04L1254.6 693.85" stroke="hsl(228.5, 77.2%, 51.5%)" stroke-width="1.5"></path><path d="M1130.15 672.04L1297.46 508.51" stroke="hsl(228.5, 77.2%, 51.5%)" stroke-width="1.5"></path><path d="M1130.15 672.04L965.76 492.74" stroke="hsl(228.5, 77.2%, 51.5%)" stroke-width="1.5"></path><path d="M1130.15 672.04L1411.95 703.3" stroke="hsl(228.5, 77.2%, 51.5%)" stroke-width="1.5"></path><path d="M1260.79 -51.05L1260.79 -51.05" stroke="hsl(228.5, 77.2%, 51.5%)" stroke-width="1.5"></path><path d="M1260.79 -51.05L1435.57 -72.69" stroke="hsl(228.5, 77.2%, 51.5%)" stroke-width="1.5"></path><path d="M1260.79 -51.05L1449.95 53.64" stroke="hsl(228.5, 77.2%, 51.5%)" stroke-width="1.5"></path><path d="M1260.79 -51.05L1266.26 234.7" stroke="hsl(228.5, 77.2%, 51.5%)" stroke-width="1.5"></path><path d="M1260.79 -51.05L1542.74 51.43" stroke="hsl(228.5, 77.2%, 51.5%)" stroke-width="1.5"></path><path d="M1260.79 -51.05L1141.07 248.13" stroke="hsl(228.5, 77.2%, 51.5%)" stroke-width="1.5"></path><path d="M1266.26 234.7L1266.26 234.7" stroke="hsl(228.5, 77.2%, 51.5%)" stroke-width="1.5"></path><path d="M1266.26 234.7L1270.82 377.69" stroke="hsl(228.5, 77.2%, 51.5%)" stroke-width="1.5"></path><path d="M1266.26 234.7L1439.8 222.84" stroke="hsl(228.5, 77.2%, 51.5%)" stroke-width="1.5"></path><path d="M1266.26 234.7L1102.05 339.98" stroke="hsl(228.5, 77.2%, 51.5%)" stroke-width="1.5"></path><path d="M1266.26 234.7L1395.99 404.94" stroke="hsl(228.5, 77.2%, 51.5%)" stroke-width="1.5"></path><path d="M1270.82 377.69L1270.82 377.69" stroke="hsl(228.5, 77.2%, 51.5%)" stroke-width="1.5"></path><path d="M1270.82 377.69L1395.99 404.94" stroke="hsl(228.5, 77.2%, 51.5%)" stroke-width="1.5"></path><path d="M1297.46 508.51L1297.46 508.51" stroke="hsl(228.5, 77.2%, 51.5%)" stroke-width="1.5"></path><path d="M1297.46 508.51L1270.82 377.69" stroke="hsl(228.5, 77.2%, 51.5%)" stroke-width="1.5"></path><path d="M1297.46 508.51L1395.99 404.94" stroke="hsl(228.5, 77.2%, 51.5%)" stroke-width="1.5"></path><path d="M1297.46 508.51L1254.6 693.85" stroke="hsl(228.5, 77.2%, 51.5%)" stroke-width="1.5"></path><path d="M1297.46 508.51L1411.95 703.3" stroke="hsl(228.5, 77.2%, 51.5%)" stroke-width="1.5"></path><path d="M1254.6 693.85L1254.6 693.85" stroke="hsl(228.5, 77.2%, 51.5%)" stroke-width="1.5"></path><path d="M1254.6 693.85L1411.95 703.3" stroke="hsl(228.5, 77.2%, 51.5%)" stroke-width="1.5"></path><path d="M1435.57 -72.69L1435.57 -72.69" stroke="hsl(228.5, 77.2%, 51.5%)" stroke-width="1.5"></path><path d="M1435.57 -72.69L1449.95 53.64" stroke="hsl(228.5, 77.2%, 51.5%)" stroke-width="1.5"></path><path d="M1435.57 -72.69L1542.74 51.43" stroke="hsl(228.5, 77.2%, 51.5%)" stroke-width="1.5"></path><path d="M1435.57 -72.69L1610.4 -51.32" stroke="hsl(228.5, 77.2%, 51.5%)" stroke-width="1.5"></path><path d="M1435.57 -72.69L1439.8 222.84" stroke="hsl(228.5, 77.2%, 51.5%)" stroke-width="1.5"></path><path d="M1435.57 -72.69L1562.01 208.12" stroke="hsl(228.5, 77.2%, 51.5%)" stroke-width="1.5"></path><path d="M1449.95 53.64L1449.95 53.64" stroke="hsl(228.5, 77.2%, 51.5%)" stroke-width="1.5"></path><path d="M1449.95 53.64L1439.8 222.84" stroke="hsl(228.5, 77.2%, 51.5%)" stroke-width="1.5"></path><path d="M1449.95 53.64L1562.01 208.12" stroke="hsl(228.5, 77.2%, 51.5%)" stroke-width="1.5"></path><path d="M1449.95 53.64L1610.4 -51.32" stroke="hsl(228.5, 77.2%, 51.5%)" stroke-width="1.5"></path><path d="M1439.8 222.84L1439.8 222.84" stroke="hsl(228.5, 77.2%, 51.5%)" stroke-width="1.5"></path><path d="M1439.8 222.84L1562.01 208.12" stroke="hsl(228.5, 77.2%, 51.5%)" stroke-width="1.5"></path><path d="M1439.8 222.84L1395.99 404.94" stroke="hsl(228.5, 77.2%, 51.5%)" stroke-width="1.5"></path><path d="M1439.8 222.84L1542.74 51.43" stroke="hsl(228.5, 77.2%, 51.5%)" stroke-width="1.5"></path><path d="M1395.99 404.94L1395.99 404.94" stroke="hsl(228.5, 77.2%, 51.5%)" stroke-width="1.5"></path><path d="M1411.95 703.3L1411.95 703.3" stroke="hsl(228.5, 77.2%, 51.5%)" stroke-width="1.5"></path><path d="M1610.4 -51.32L1610.4 -51.32" stroke="hsl(228.5, 77.2%, 51.5%)" stroke-width="1.5"></path><path d="M1610.4 -51.32L1562.01 208.12" stroke="hsl(228.5, 77.2%, 51.5%)" stroke-width="1.5"></path><path d="M1562.01 208.12L1562.01 208.12" stroke="hsl(228.5, 77.2%, 51.5%)" stroke-width="1.5"></path><path d="M1562.01 208.12L1395.99 404.94" stroke="hsl(228.5, 77.2%, 51.5%)" stroke-width="1.5"></path><path d="M1563.81 512.26L1563.81 512.26" stroke="hsl(228.5, 77.2%, 51.5%)" stroke-width="1.5"></path><path d="M1563.81 512.26L1395.99 404.94" stroke="hsl(228.5, 77.2%, 51.5%)" stroke-width="1.5"></path><path d="M1587.87 710.95L1587.87 710.95" stroke="hsl(228.5, 77.2%, 51.5%)" stroke-width="1.5"></path><path d="M1587.87 710.95L1411.95 703.3" stroke="hsl(228.5, 77.2%, 51.5%)" stroke-width="1.5"></path><path d="M1587.87 710.95L1563.81 512.26" stroke="hsl(228.5, 77.2%, 51.5%)" stroke-width="1.5"></path><path d="M1587.87 710.95L1393.55 557.46" stroke="hsl(228.5, 77.2%, 51.5%)" stroke-width="1.5"></path><path d="M1587.87 710.95L1566.26 384.31" stroke="hsl(228.5, 77.2%, 51.5%)" stroke-width="1.5"></path><circle r="25" cx="-82.21" cy="702.7" fill="url(&quot;#SvgjsRadialGradient1009&quot;)"></circle><circle r="25" cx="196.33" cy="532.1" fill="url(&quot;#SvgjsRadialGradient1009&quot;)"></circle><circle r="25" cx="511.8" cy="561.67" fill="url(&quot;#SvgjsRadialGradient1009&quot;)"></circle><circle r="25" cx="845.87" cy="373.74" fill="url(&quot;#SvgjsRadialGradient1009&quot;)"></circle><circle r="25" cx="808.09" cy="657.18" fill="url(&quot;#SvgjsRadialGradient1009&quot;)"></circle><circle r="25" cx="1155.14" cy="534.1" fill="url(&quot;#SvgjsRadialGradient1009&quot;)"></circle><circle r="25" cx="1393.55" cy="557.46" fill="url(&quot;#SvgjsRadialGradient1009&quot;)"></circle><circle r="25" cx="1542.74" cy="51.43" fill="url(&quot;#SvgjsRadialGradient1009&quot;)"></circle><circle r="25" cx="1566.26" cy="384.31" fill="url(&quot;#SvgjsRadialGradient1009&quot;)"></circle><circle r="5" cx="-75.27" cy="561.23" fill="#8b9ad9"></circle><circle r="5" cx="86.05" cy="558.32" fill="#8b9ad9"></circle><circle r="5" cx="58.42" cy="689.51" fill="#8b9ad9"></circle><circle r="5" cx="208.76" cy="697.96" fill="#8b9ad9"></circle><circle r="5" cx="360.96" cy="492.99" fill="#8b9ad9"></circle><circle r="5" cx="343.16" cy="655.5" fill="#8b9ad9"></circle><circle r="5" cx="523.86" cy="703.41" fill="#8b9ad9"></circle><circle r="5" cx="684.43" cy="366.38" fill="#8b9ad9"></circle><circle r="5" cx="643.06" cy="503.31" fill="#8b9ad9"></circle><circle r="5" cx="675.44" cy="639.96" fill="#8b9ad9"></circle><circle r="5" cx="853.04" cy="544.86" fill="#8b9ad9"></circle><circle r="5" cx="947.69" cy="381.73" fill="#8b9ad9"></circle><circle r="5" cx="965.76" cy="492.74" fill="#8b9ad9"></circle><circle r="5" cx="965.2" cy="651.75" fill="#8b9ad9"></circle><circle r="5" cx="1141.07" cy="248.13" fill="#8b9ad9"></circle><circle r="5" cx="1102.05" cy="339.98" fill="#8b9ad9"></circle><circle r="5" cx="1130.15" cy="672.04" fill="#8b9ad9"></circle><circle r="5" cx="1260.79" cy="-51.05" fill="#8b9ad9"></circle><circle r="5" cx="1266.26" cy="234.7" fill="#8b9ad9"></circle><circle r="5" cx="1270.82" cy="377.69" fill="#8b9ad9"></circle><circle r="5" cx="1297.46" cy="508.51" fill="#8b9ad9"></circle><circle r="5" cx="1254.6" cy="693.85" fill="#8b9ad9"></circle><circle r="5" cx="1435.57" cy="-72.69" fill="#8b9ad9"></circle><circle r="5" cx="1449.95" cy="53.64" fill="#8b9ad9"></circle><circle r="5" cx="1439.8" cy="222.84" fill="#8b9ad9"></circle><circle r="5" cx="1395.99" cy="404.94" fill="#8b9ad9"></circle><circle r="5" cx="1411.95" cy="703.3" fill="#8b9ad9"></circle><circle r="5" cx="1610.4" cy="-51.32" fill="#8b9ad9"></circle><circle r="5" cx="1562.01" cy="208.12" fill="#8b9ad9"></circle><circle r="5" cx="1563.81" cy="512.26" fill="#8b9ad9"></circle><circle r="5" cx="1587.87" cy="710.95" fill="#8b9ad9"></circle></g><defs><mask id="SvgjsMask1008"><rect width="1440" height="560" fill="#ffffff"></rect></mask><radialGradient id="SvgjsRadialGradient1009"><stop stop-color="#ffffff" offset="0.1"></stop><stop stop-color="#1735b3" offset="0.2"></stop><stop stop-color="rgba(23, 53, 179, 0)" offset="1"></stop></radialGradient></defs></svg>